<?xml version="1.0" encoding="iso-8859-1"?>
<!-- Generator: Adobe Illustrator 17.1.0, SVG Export Plug-In . SVG Version: 6.00 Build 0)  -->
<!DOCTYPE svg PUBLIC "-//W3C//DTD SVG 1.1//EN" "http://www.w3.org/Graphics/SVG/1.1/DTD/svg11.dtd">
<svg version="1.1" id="Capa_1" xmlns="http://www.w3.org/2000/svg" xmlns:xlink="http://www.w3.org/1999/xlink" x="0px" y="0px"
	 viewBox="0 0 198.767 198.767" style="enable-background:new 0 0 198.767 198.767;" xml:space="preserve">
<path d="M198.767,47.597l-0.053,28.676l-28.591-0.057l-5.907-5.909c-16.439-16.438-38.296-25.492-61.545-25.492
	c-23.249,0-45.105,9.054-61.545,25.493l-3.599,3.599c-3.824,3.824-8.908,5.931-14.316,5.931c-5.408,0-10.492-2.106-14.316-5.931
	l-0.118-0.117c-3.792-3.793-5.881-8.835-5.881-14.197c0-5.363,2.088-10.405,5.881-14.198c25.08-25.08,58.425-38.892,93.893-38.892
	c35.468,0,68.813,13.812,93.894,38.892L198.767,47.597z M190.19,124.977l-0.118-0.117c-3.823-3.824-8.907-5.931-14.315-5.931
	c-5.408,0-10.492,2.106-14.316,5.93l-4.314,4.315c-16.247,16.248-37.851,25.196-60.829,25.196s-44.582-8.948-60.83-25.196
	l-6.545-6.546L0,121.842l0.231,29.357l2.172,2.173c25.08,25.08,58.425,38.893,93.893,38.893c35.468,0,68.813-13.813,93.894-38.893
	C198.019,145.543,198.019,132.806,190.19,124.977z"/>
<g>
</g>
<g>
</g>
<g>
</g>
<g>
</g>
<g>
</g>
<g>
</g>
<g>
</g>
<g>
</g>
<g>
</g>
<g>
</g>
<g>
</g>
<g>
</g>
<g>
</g>
<g>
</g>
<g>
</g>
</svg>
