<?xml version="1.0" encoding="iso-8859-1"?>
<!-- Generator: Adobe Illustrator 19.0.0, SVG Export Plug-In . SVG Version: 6.00 Build 0)  -->
<svg version="1.1" id="Layer_1" xmlns="http://www.w3.org/2000/svg" xmlns:xlink="http://www.w3.org/1999/xlink" x="0px" y="0px"
	 viewBox="0 0 490.667 490.667" style="enable-background:new 0 0 490.667 490.667;" xml:space="preserve">
<g>
	<g>
		<path d="M490.304,190.227c-0.064-0.363,0.064-0.747-0.043-1.109c-0.064-0.192-0.213-0.32-0.277-0.512
			c-0.405-1.173-1.003-2.197-1.771-3.157c-0.213-0.256-0.32-0.555-0.533-0.811c-1.067-1.109-2.368-1.984-3.84-2.539
			c-0.064-0.021-0.128-0.107-0.192-0.128L248.981,96.637c-2.347-0.875-4.928-0.875-7.296,0L7.019,181.971
			c-1.877,0.683-3.371,1.963-4.587,3.499c-0.363,0.469-0.533,0.96-0.832,1.472c-0.405,0.725-0.981,1.344-1.216,2.176
			c-0.171,0.619,0,1.216-0.064,1.856c-0.021,0.363-0.32,0.64-0.32,1.024v85.333c0,2.411,0.832,4.779,2.325,6.677l85.333,106.667
			c2.027,2.517,5.099,4.011,8.341,4.011h106.667c5.888,0,10.667-4.779,10.667-10.667v-32.021h64v32
			c0,5.888,4.779,10.667,10.667,10.667h106.667c1.557,0,3.029-0.363,4.352-0.981c0.341-0.149,0.619-0.448,0.939-0.64
			c0.981-0.576,1.877-1.216,2.624-2.069c0.128-0.128,0.299-0.192,0.427-0.341l85.333-106.667c1.515-1.899,2.325-4.245,2.325-6.677
			v-85.333C490.667,191.379,490.411,190.824,490.304,190.227z M85.333,353.597l-64-80v-51.179l64,80V353.597z M256,164.477
			l89.579,31.979l29.632,10.581l-18.325,18.325c-0.341-0.171-0.555-0.469-0.917-0.597l-99.968-40V164.477z M245.333,203.475
			l95.317,38.123l-3.733,3.733H153.749l-3.733-3.733L245.333,203.475z M234.667,164.477v20.288l-99.968,40
			c-0.363,0.149-0.512,0.512-0.832,0.683l-18.411-18.411L234.667,164.477z M384,373.331h-85.333v-32
			c0-5.888-4.779-10.667-10.667-10.667h-85.333c-5.888,0-10.667,4.779-10.667,10.667v32h-85.333v-64H384V373.331z M469.333,273.576
			l-64,80v-51.157l64-80V273.576z"/>
	</g>
</g>
<g>
</g>
<g>
</g>
<g>
</g>
<g>
</g>
<g>
</g>
<g>
</g>
<g>
</g>
<g>
</g>
<g>
</g>
<g>
</g>
<g>
</g>
<g>
</g>
<g>
</g>
<g>
</g>
<g>
</g>
</svg>
